HIERARCHY
ROOT Hips
{
	OFFSET 0.000000 0.000000 0.000000
	CHANNELS 6 Xposition Yposition Zposition Zrotation Yrotation Xrotation 
	JOINT LHipJoint
	{
		OFFSET 0.000000 0.000000 0.000000
		CHANNELS 3 Zrotation Yrotation Xrotation
		JOINT LeftUpLeg
		{
			OFFSET 1.363060 -1.794630 0.839290
			CHANNELS 3 Zrotation Yrotation Xrotation
			JOINT LeftLeg
			{
				OFFSET 2.448110 -6.726130 0.000000
				CHANNELS 3 Zrotation Yrotation Xrotation
				JOINT LeftFoot
				{
					OFFSET 2.562200 -7.039590 0.000000
					CHANNELS 3 Zrotation Yrotation Xrotation
					JOINT LeftToeBase
					{
						OFFSET 0.157640 -0.433110 2.322550
						CHANNELS 3 Zrotation Yrotation Xrotation
						End Site
						{
							OFFSET 0.000000 0.000000 0.000000
						}
					}
				}
			}
		}
	}
	JOINT RHipJoint
	{
		OFFSET 0.000000 0.000000 0.000000
		CHANNELS 3 Zrotation Yrotation Xrotation
		JOINT RightUpLeg
		{
			OFFSET -1.305520 -1.794630 0.839290
			CHANNELS 3 Zrotation Yrotation Xrotation
			JOINT RightLeg
			{
				OFFSET -2.542530 -6.985550 0.000000
				CHANNELS 3 Zrotation Yrotation Xrotation
				JOINT RightFoot
				{
					OFFSET -2.568260 -7.056230 0.000000
					CHANNELS 3 Zrotation Yrotation Xrotation
					JOINT RightToeBase
					{
						OFFSET -0.164730 -0.452590 2.363150
						CHANNELS 3 Zrotation Yrotation Xrotation
						End Site
						{
							OFFSET 0.000000 0.000000 0.000000
						}
					}
				}
			}
		}
	}
	JOINT LowerBack
	{
		OFFSET 0.000000 0.000000 0.000000
		CHANNELS 3 Zrotation Yrotation Xrotation
		JOINT Spine
		{
			OFFSET 0.028270 2.035590 -0.193380
			CHANNELS 3 Zrotation Yrotation Xrotation
			JOINT Spine1
			{
				OFFSET 0.056720 2.048850 -0.042750
				CHANNELS 3 Zrotation Yrotation Xrotation
				JOINT Neck
				{
					OFFSET 0.000000 0.000000 0.000000
					CHANNELS 3 Zrotation Yrotation Xrotation
					JOINT Neck1
					{
						OFFSET -0.054170 1.746240 0.172020
						CHANNELS 3 Zrotation Yrotation Xrotation
						JOINT Head
						{
							OFFSET 0.104070 1.761360 -0.123970
							CHANNELS 3 Zrotation Yrotation Xrotation
							End Site
							{
								OFFSET 0.000000 0.000000 0.000000
							}
						}
					}
				}
				JOINT LeftShoulder
				{
					OFFSET 0.000000 0.000000 0.000000
					CHANNELS 3 Zrotation Yrotation Xrotation
					JOINT LeftArm
					{
						OFFSET 3.362410 1.200890 -0.311210
						CHANNELS 3 Zrotation Yrotation Xrotation
						JOINT LeftForeArm
						{
							OFFSET 4.983000 -0.000000 -0.000000
							CHANNELS 3 Zrotation Yrotation Xrotation
							JOINT LeftHand
							{
								OFFSET 3.483560 -0.000000 -0.000000
								CHANNELS 3 Zrotation Yrotation Xrotation
								JOINT LeftFingerBase
								{
									OFFSET 0.000000 0.000000 0.000000
									CHANNELS 3 Zrotation Yrotation Xrotation
									JOINT LeftHandIndex1
									{
										OFFSET 0.715260 -0.000000 -0.000000
										CHANNELS 3 Zrotation Yrotation Xrotation
										End Site
										{
											OFFSET 0.000000 0.000000 0.000000
										}
									}
								}
								JOINT LThumb
								{
									OFFSET 0.000000 0.000000 0.000000
									CHANNELS 3 Zrotation Yrotation Xrotation
									End Site
									{
										OFFSET 0.000000 0.000000 0.000000
									}
								}
							}
						}
					}
				}
				JOINT RightShoulder
				{
					OFFSET 0.000000 0.000000 0.000000
					CHANNELS 3 Zrotation Yrotation Xrotation
					JOINT RightArm
					{
						OFFSET -3.136600 1.374050 -0.404650
						CHANNELS 3 Zrotation Yrotation Xrotation
						JOINT RightForeArm
						{
							OFFSET -5.241900 -0.000000 -0.000000
							CHANNELS 3 Zrotation Yrotation Xrotation
							JOINT RightHand
							{
								OFFSET -3.444170 -0.000000 -0.000000
								CHANNELS 3 Zrotation Yrotation Xrotation
								JOINT RightFingerBase
								{
									OFFSET 0.000000 0.000000 0.000000
									CHANNELS 3 Zrotation Yrotation Xrotation
									JOINT RightHandIndex1
									{
										OFFSET -0.622530 -0.000000 -0.000000
										CHANNELS 3 Zrotation Yrotation Xrotation
										End Site
										{
											OFFSET 0.000000 0.000000 0.000000
										}
									}
								}
								JOINT RThumb
								{
									OFFSET 0.000000 0.000000 0.000000
									CHANNELS 3 Zrotation Yrotation Xrotation
									End Site
									{
										OFFSET 0.000000 0.000000 0.000000
									}
								}
							}
						}
					}
				}
			}
		}
	}
}
MOTION
Frames: 10
Frame Time: 0.033333
-22.192345 16.535781 -0.136835 25.180354 87.403448 47.488214 -8.948237 -0.988278 3.979119 -5.091349 -8.866920 -52.547360 -1.563217 0.402836 19.502439 0.719860 5.016052 8.909720 2.056600 -0.000000 -30.693699 9.913370 -2.896804 -1.411013 6.983403 -4.553994 2.290640 2.078936 -0.104852 10.240340 -1.083669 -4.638762 -5.602407 -0.407700 -0.000000 -67.826701 -7.490814 2.305062 -3.062409 0.209730 -1.664124 -6.143753 -9.787407 -1.149255 2.324340 7.546601 -9.517525 -9.731518 0.282325 -4.929959 -0.324331 4.309126 -0.169690 1.385908 0.340274 15.523676 2.588784 -57.756536 13.113405 2.097748 -0.772062 -34.359892 -0.775815 -4.743088 1.580544 -1.172390 0.319981 -1.502420 -1.008784 1.285233 -1.289508 -0.154774 0.157939 1.153694 -1.972145 7.529806 -5.304283 -2.702090 59.548165 8.411319 5.050357 0.489502 48.921056 -0.005540 0.968882 6.963158 0.393540 -0.728729 2.894069 0.986300 -0.772893 -4.838281 4.273928 0.199175 -3.944816 0.604598 
-22.024793 16.549888 -0.160660 29.299365 87.568407 51.542431 -8.820319 -0.926508 3.999460 -5.377982 -9.238797 -52.446327 -1.513216 0.460492 20.714925 0.756759 5.188438 8.365943 2.056800 0.000000 -29.879700 10.166947 -3.007893 -1.486518 6.465094 -5.202688 1.719695 1.985417 -0.372775 12.016197 -0.982773 -4.352293 -4.199302 -0.516400 -0.000000 -70.471900 -3.006636 2.555667 -3.937761 0.807701 2.465112 -2.225934 -5.334871 1.038064 -2.128777 11.986077 -8.837873 -11.019988 -5.646927 1.850419 1.507532 -0.591266 -1.787916 -2.525109 -0.162487 16.403002 4.594637 -64.656697 14.141186 5.429195 -2.419997 -38.118434 -0.568344 -4.451710 -2.454776 -0.219205 0.576907 -1.529113 0.789307 0.427781 2.454796 3.662933 -0.144300 -0.320655 0.578311 8.543578 -3.894997 -0.312499 65.490049 8.872998 7.043440 7.510598 53.165213 3.494470 4.888092 6.809622 1.041298 1.733030 -1.052357 -1.542534 -0.079255 -1.899655 0.291159 -2.458826 0.247082 -2.675129 
-21.857908 16.567579 -0.184319 33.596937 87.704164 55.749729 -8.674353 -0.844713 4.015265 -5.717601 -9.566757 -52.216424 -1.488890 0.500340 21.788380 0.792059 5.332071 7.601922 2.025900 0.000000 -29.304700 10.444076 -3.102706 -1.575429 5.917729 -5.945920 1.028135 1.869483 -0.648791 13.978535 -0.891031 -4.074692 -2.658280 -0.614300 0.000000 -72.881200 -2.989225 3.267275 -5.239870 2.246288 -1.051750 -1.092552 -8.761824 1.240678 -2.043322 8.435526 -3.396527 -6.136944 -2.089165 -1.231300 -0.308239 -2.521088 -1.390949 1.350291 -4.682275 18.212539 1.117902 -60.924846 22.580863 9.931470 -7.655323 -29.664544 1.629642 -1.724097 -2.018764 -0.086639 1.857051 0.696214 -1.083079 1.980973 1.251048 -1.741288 1.924131 -0.164969 1.682130 10.516246 -6.512321 1.970990 52.738418 12.191794 9.033734 1.959591 49.159225 1.640903 1.136258 4.700888 3.238458 2.137072 6.101320 -1.922061 -2.517403 -3.266880 0.674831 -1.957888 -3.126176 0.293214 
-21.692318 16.588503 -0.207832 37.844233 87.798257 59.885623 -8.520737 -0.742535 4.027398 -6.104368 -9.842968 -51.854381 -1.490128 0.524404 22.695989 0.824731 5.438094 6.672972 1.964400 0.000000 -28.937700 10.733356 -3.175926 -1.674410 5.350004 -6.761677 0.218586 1.727069 -0.926620 16.116339 -0.818500 -3.848091 -0.980872 -0.703700 0.000000 -74.945800 -7.026284 -3.323823 -0.740703 -3.824934 -2.419283 -5.758237 -5.481882 2.115810 -1.753032 9.856343 -2.839589 -9.859968 -1.581732 3.021855 -4.356826 -0.281146 1.368890 -0.817713 -0.124820 14.033460 -0.787212 -65.917226 9.721921 1.073915 3.017007 -32.344775 -0.238562 0.613551 2.931598 2.191553 -1.362594 1.189945 4.592440 2.452164 -0.779985 -0.246405 1.520342 -0.993326 0.919262 13.043039 -2.283925 0.671991 57.508742 13.626066 7.286382 2.009548 44.101486 4.066520 0.804378 9.650888 -1.623614 0.954818 8.394638 -1.762995 -0.588229 0.363369 0.029979 1.204541 1.055261 -1.387234 
-21.528387 16.612237 -0.231399 41.792471 87.848056 63.707586 -8.372237 -0.624450 4.036510 -6.526758 -10.059991 -51.368743 -1.514468 0.535016 23.423549 0.853272 5.497353 5.641658 1.875300 0.000000 -28.735000 11.019528 -3.224774 -1.777705 4.782108 -7.614118 -0.701034 1.556543 -1.199208 18.406651 -0.776644 -3.726934 0.821242 -0.793200 -0.000000 -76.539800 -6.120575 0.101577 -2.920399 -5.241252 0.874458 -1.849272 -5.470354 -0.994971 -2.173607 9.710876 -7.368809 -7.627443 -3.487035 -2.564072 0.119501 -2.931090 0.188518 -0.612035 1.265140 14.657705 4.450307 -63.118016 9.266660 5.476715 -6.135530 -27.532307 3.755868 -3.125062 3.846044 -1.710174 0.946611 -1.006863 -4.016418 -1.281579 0.960727 0.755839 -0.515652 1.535665 -4.089723 7.390747 -5.173366 -1.389214 63.674323 10.025953 10.940530 -3.022825 43.179377 -0.191228 0.378802 3.996168 -0.282612 -0.270872 2.046482 0.411116 0.787052 3.056633 -0.531591 -2.789236 0.367149 -1.290786 
-21.366634 16.638299 -0.254692 45.385355 87.853366 67.162231 -8.231695 -0.493786 4.041593 -6.983270 -10.221039 -50.762319 -1.559758 0.533017 23.958862 0.876634 5.511814 4.574960 1.767000 -0.000000 -28.644000 11.299157 -3.245583 -1.882375 4.219088 -8.480786 -1.718390 1.358536 -1.460521 20.826293 -0.773532 -3.750298 2.722525 -0.894600 -0.000001 -77.545700 0.209648 1.597981 2.435249 -2.385076 2.055224 -2.140026 -3.413101 1.430966 0.099559 6.699628 -7.306218 -9.444847 -1.289804 0.192555 -1.770417 0.753878 -0.281262 -0.103677 0.078106 12.713514 3.261643 -64.510309 11.406044 10.318248 -7.119662 -40.384261 2.013264 -1.917532 1.022757 0.455303 3.858525 -0.313187 -0.779758 -1.346820 1.043498 -0.169940 0.306697 -4.354727 0.946126 10.106345 -1.440014 -1.404434 59.645994 3.332472 9.813096 4.397020 42.064890 -0.585149 -0.469875 6.102247 -0.900740 -2.229225 -3.551775 -3.710458 -2.099592 2.566310 -3.845113 -0.936626 1.607208 3.919036 
-21.207131 16.666206 -0.278012 48.468498 87.827643 70.103645 -8.109412 -0.358936 4.042814 -7.452098 -10.321088 -50.061748 -1.620206 0.520992 24.314568 0.892744 5.474459 3.529554 1.645300 -0.000000 -28.613601 11.557293 -3.239166 -1.981212 3.697778 -9.314468 -2.816554 1.138626 -1.703655 23.338141 -0.817319 -3.971690 4.683365 -1.029500 0.000000 -77.840100 -8.627887 -2.296935 1.884977 -2.943991 -0.406562 -6.182267 -3.411409 -1.714159 3.212376 12.626254 -2.623317 -9.832079 -1.658506 0.774195 -2.319858 3.999762 -3.168137 -2.180945 -6.625423 20.997804 0.710780 -62.516744 -1.486773 -1.306913 -6.702901 -37.161641 4.108547 2.081830 2.267508 -2.475630 2.707415 0.003002 1.705018 5.248417 1.324352 3.062392 -2.883972 -1.688596 0.688841 12.903167 1.834638 -3.539392 61.506114 -1.333692 17.555074 7.089448 44.825646 5.364087 -3.228374 5.415355 0.779954 0.885126 -0.207213 2.292420 -3.265748 -0.451612 2.976917 2.279944 -0.704565 3.696486 
-21.050478 16.695456 -0.301127 51.109784 87.779948 72.601055 -8.003871 -0.223117 4.039250 -7.925619 -10.367703 -49.280979 -1.691614 0.500230 24.501913 0.900972 5.392424 2.554908 1.519700 0.000000 -28.596101 11.793369 -3.203735 -2.072186 3.228934 -10.092990 -3.976735 0.904581 -1.924062 25.912821 -0.909058 -4.410220 6.646020 -1.218100 -0.000001 -77.348000 -7.992917 3.009029 5.300681 -1.612249 -1.939039 -4.232303 -5.363145 0.684698 1.980740 12.056559 -4.629662 -7.969010 -0.743505 0.001231 0.467071 -0.979284 2.510227 -3.171954 -3.465702 11.682397 1.524948 -62.098481 11.053116 8.796433 -5.349385 -35.066501 4.340135 2.117628 2.794919 -4.498230 3.093535 -2.863682 0.898248 -1.486958 0.164835 3.682306 -2.917089 -0.945162 0.169800 11.468691 -2.416816 1.333659 65.743107 4.901836 12.411592 3.602653 41.164880 -2.017111 2.974600 7.408414 1.558565 -2.064296 1.207912 2.711798 -1.370329 -0.427462 0.708048 -0.896156 0.714835 -1.601109 
-20.896538 16.725649 -0.324122 53.351940 87.725074 74.701303 -7.917035 -0.090954 4.030768 -8.385779 -10.364871 -48.445192 -1.768395 0.473074 24.547089 0.900785 5.269586 1.683004 1.396600 -0.000000 -28.555400 12.001835 -3.140967 -2.152559 2.836381 -10.789071 -5.179800 0.667096 -2.118734 28.516785 -1.046275 -5.076895 8.540623 -1.480900 -0.000000 -76.054001 -6.798878 -2.315424 -1.060686 -1.299840 1.732756 -4.267031 -9.169911 -3.933422 1.102484 5.529707 -6.972875 -6.522210 -3.966635 -1.954661 -0.710348 0.636371 2.261614 0.439727 -5.143018 7.647712 3.504006 -59.701597 5.878608 1.302609 -7.395539 -34.893625 5.538878 1.292439 -0.840711 3.287060 -0.710981 -0.967363 -0.348120 0.255481 6.946329 -1.267315 -2.019978 -1.794852 0.481766 6.246654 -3.803502 1.637673 60.183337 11.501514 11.029338 5.969771 39.473918 1.249992 0.928805 6.462831 1.304757 0.564012 -0.756477 -1.476951 2.847856 1.526059 -0.091057 -2.906330 6.058184 -0.839305 
-20.745642 16.756470 -0.346447 55.375319 87.662507 76.580952 -7.839926 0.039516 4.016505 -8.836358 -10.331756 -47.557429 -1.848000 0.440411 24.464046 0.894299 5.127321 0.935003 1.284400 0.000000 -28.465700 12.190507 -3.048625 -2.225455 2.506762 -11.402429 -6.405609 0.435696 -2.287922 31.125593 -1.219718 -5.942588 10.287291 -1.824100 0.000000 -74.043000 -2.677829 1.468259 6.029638 -2.435377 -2.705294 -4.359438 -5.165226 1.270387 -0.225842 8.542586 1.904702 -9.670583 0.351869 -0.683168 -0.923836 -2.933970 2.407300 0.674347 -6.465161 16.754966 1.691062 -59.866774 1.766148 8.374824 -1.723388 -30.658889 -2.118311 -1.671796 2.010073 1.638224 1.015533 1.224683 -2.200592 -0.626641 -0.439928 0.477811 0.229907 -1.882713 1.473383 12.427358 -3.507337 2.711691 63.991520 7.528452 13.514732 -1.932418 50.050286 -4.179136 -2.209318 3.082072 0.943081 0.453829 -1.892786 -2.098679 1.534096 -1.226393 1.596546 -0.847794 -1.967936 3.058460 
